{"title":"The Devils Rock 2011 DVDRip XViD DTRG","uid":6555049,"size":1029179129,"categoryP":"video","categoryS":"movies","magnet":"?xt=urn:btih:2bcb499e39449bcbea3a552d174321b20f6a4403&amp;dn=The+Devils+Rock+2011+DVDRip+XViD+DTRG&amp;tr=udp%3A%2F%2Ftracker.openbittorrent.com%3A80&amp;tr=udp%3A%2F%2Fopen.demonii.com%3A1337&amp;tr=udp%3A%2F%2Ftracker.coppersurfer.tk%3A6969&amp;tr=udp%3A%2F%2Fexodus.desync.com%3A6969","seeders":2,"leechers":0,"uploader":"SAFCukO09","files":3,"time":1311258629,"description":"Format                           : AVI\nFormat/Info                      : Audio Video Interleave\nFile size                        : 982 MiB\nDuration                         : 1h 23mn\nOverall bit rate                 : 1 652 Kbps\nWriting application              : Lavf52.13.0\nWriting library                  : VirtualDub build 32842/release\n\nVideo\nID                               : 0\nFormat                           : MPEG-4 Visual\nFormat profile                   : Advanced Simple@L5\nFormat settings, BVOP            : 2\nFormat settings, QPel            : No\nFormat settings, GMC             : No warppoints\nFormat settings, Matrix          : Default (H.263)\nMuxing mode                      : Packed bitstream\nCodec ID                         : XVID\nCodec ID/Hint                    : XviD\nDuration                         : 1h 23mn\nBit rate                         : 1 447 Kbps\nWidth                            : 720 pixels\nHeight                           : 400 pixels\nDisplay aspect ratio             : 16:9\nFrame rate                       : 25.000 fps\nColor space                      : YUV\nChroma subsampling               : 4:2:0\nBit depth                        : 8 bits\nScan type                        : Progressive\nCompression mode                 : Lossy\nBits/(Pixel*Frame)               : 0.201\nStream size                      : 860 MiB (88%)\nWriting library                  : XviD 64\n\nAudio\nID                               : 1\nFormat                           : MPEG Audio\nFormat version                   : Version 1\nFormat profile                   : Layer 3\nMode                             : Joint stereo\nMode extension                   : MS Stereo\nCodec ID                         : 55\nCodec ID/Hint                    : MP3\nDuration                         : 1h 23mn\nBit rate mode                    : Constant\nBit rate                         : 192 Kbps\nChannel(s)                       : 2 channels\nSampling rate                    : 44.1 KHz\nCompression mode                 : Lossy\nStream size                      : 114 MiB (12%)\nAlignment                        : Aligned on interleaves\nInterleave, duration             : 26 ms (0.65 video frame)\nInterleave, preload duration     : 522 ms\nWriting library                  : LAME3.98 (beta)\n\n\n\n\n\n &lt;a href=&quot;\nhttp://www.imdb.com/title/tt1712578/&quot; rel=&quot;nofollow&quot; target=&quot;_NEW&quot;&gt;\nhttp://www.imdb.com/title/tt1712578/&lt;/a&gt;\n\n\n\n\n\n\n\n\nSet in the Channel Islands on the eve of D Day,two Kiwi commandos, sent to destroy German gun emplacements to distract Hitler's forces away from Normandy, discover a Nazi occult plot to unleash demonic forces to win the war. \n\n Director: Paul Campion\n Writers: Paul Finch (screenplay), Paul Campion (screenplay),  and 2 more credits Ã‚Â» \nStars: Craig Hall, Matthew Sunderland and Gina Varela\n\n\n\n\n[img]http://leetleech.org/images/95521316153253938506.png[/img]\n\n\n\n &lt;a href=&quot;\nhttp://www.leetleech.org/images/68177437072122253222.png&quot; rel=&quot;nofollow&quot; target=&quot;_NEW&quot;&gt;\nhttp://www.leetleech.org/images/68177437072122253222.png&lt;/a&gt;\n &lt;a href=&quot;\nhttp://www.leetleech.org/images/28001428915436826473.png&quot; rel=&quot;nofollow&quot; target=&quot;_NEW&quot;&gt;\nhttp://www.leetleech.org/images/28001428915436826473.png&lt;/a&gt;\n &lt;a href=&quot;\nhttp://www.leetleech.org/images/25826668116629435317.png&quot; rel=&quot;nofollow&quot; target=&quot;_NEW&quot;&gt;\nhttp://www.leetleech.org/images/25826668116629435317.png&lt;/a&gt;\n\n\n\n\n\nSource Used \n\n\nJust a Reencode of TICTAC Release .......Thanks \n\nCropped the remaining black border and resized the resolution \n\n\n\n\n\nEnjoy\n\n\n\n\n\nGreetz to IMAGiNE,Flawl3ss,DiLLoN,BDK,NOiR,TOXiC,THC,Ez,Rx,Boobyblue,TaRiQ786,BHRG","torrent":{"xt":"urn:btih:2bcb499e39449bcbea3a552d174321b20f6a4403","amp;dn":"The+Devils+Rock+2011+DVDRip+XViD+DTRG","amp;tr":["udp%3A%2F%2Ftracker.openbittorrent.com%3A80","udp%3A%2F%2Fopen.demonii.com%3A1337","udp%3A%2F%2Ftracker.coppersurfer.tk%3A6969","udp%3A%2F%2Fexodus.desync.com%3A6969"],"infoHash":"2bcb499e39449bcbea3a552d174321b20f6a4403","infoHashBuffer":{"type":"Buffer","data":[43,203,73,158,57,68,155,203,234,58,85,45,23,67,33,178,15,106,68,3]},"announce":[],"urlList":[]}}